<?xml version="1.0" encoding="iso-8859-1"?>
<!-- Generator: Adobe Illustrator 19.0.0, SVG Export Plug-In . SVG Version: 6.00 Build 0)  -->
<svg xmlns="http://www.w3.org/2000/svg" xmlns:xlink="http://www.w3.org/1999/xlink" version="1.1" id="Layer_1" x="0px" y="0px" viewBox="0 0 512.001 512.001" style="enable-background:new 0 0 512.001 512.001;" xml:space="preserve">
<circle style="fill:#FFA91F;" cx="255.997" cy="255.996" r="255.996"/>
<path style="fill:#E67500;" d="M512.001,255.999c0-1.446-0.03-2.885-0.054-4.326l-96.752-96.752  c-20.459-21.725-45.312-39.261-73.144-51.189v-0.286h-0.659c-2.884-1.225-5.799-2.39-8.745-3.492l-65.828-71.74h-21.636v58.186  c-104.71,5.103-190.07,83.86-205.375,185.568l134.949,134.95h-12.952v14.745c0,15.741,7.005,29.868,18.05,39.458l49.503,49.503  c8.758,0.906,17.645,1.375,26.642,1.375C397.385,512,512.001,397.385,512.001,255.999z"/>
<path style="fill:#3C3B41;" d="M244.724,251.068v170.597c0,16.904-13.753,30.657-30.657,30.657s-30.656-13.752-30.656-30.657  v-14.745h-21.606v14.745c0,28.817,23.445,52.263,52.263,52.263s52.263-23.445,52.263-52.263V251.068H244.724z"/>
<path style="fill:#171719;" d="M266.33,251.068h-10.329V452.82c6.486-8.706,10.329-19.489,10.329-31.155V251.068z"/>
<rect x="245.182" y="28.212" style="fill:#FF0335;" width="21.637" height="60.99"/>
<rect x="255.997" y="28.212" style="fill:#C2001B;" width="10.819" height="60.99"/>
<path style="fill:#FF0335;" d="M171.509,303.625c15.792-24.858,47.687-41.865,84.492-41.865s68.7,17.007,84.492,41.865  c15.792-24.858,47.687-41.865,84.492-41.865c17.189,0,33.297,3.726,47.209,10.21C456.365,166.78,365.603,86.133,256.001,86.133  c-109.603,0-200.365,80.647-216.194,185.837c13.913-6.483,30.021-10.21,47.209-10.21  C123.821,261.76,155.716,278.767,171.509,303.625z"/>
<path style="fill:#C2001B;" d="M256,86.133L256,86.133V261.76c36.805,0,68.7,17.007,84.492,41.865  c15.792-24.858,47.687-41.865,84.492-41.865c17.189,0,33.296,3.726,47.209,10.21C456.365,166.78,365.603,86.133,256,86.133z"/>
<path style="fill:#FFFFFF;" d="M256.001,86.133L256.001,86.133c-0.004,0.002-84.492,34.712-84.492,217.492  c15.792-24.858,47.687-41.865,84.492-41.865s68.7,17.007,84.492,41.865C340.492,120.845,256.005,86.135,256.001,86.133z"/>
<path style="fill:#E1E1E3;" d="M256,86.133L256,86.133V261.76c36.805,0,68.7,17.007,84.492,41.865  C340.492,120.845,256.005,86.135,256,86.133z"/>
<g>
</g>
<g>
</g>
<g>
</g>
<g>
</g>
<g>
</g>
<g>
</g>
<g>
</g>
<g>
</g>
<g>
</g>
<g>
</g>
<g>
</g>
<g>
</g>
<g>
</g>
<g>
</g>
<g>
</g>
</svg>
